<?xml version="1.0" encoding="utf-8" ?>
<svg baseProfile="tiny" height="500" version="1.2" width="500" xmlns="http://www.w3.org/2000/svg" xmlns:ev="http://www.w3.org/2001/xml-events" xmlns:xlink="http://www.w3.org/1999/xlink"><defs /><polygon fill="none" points="0,0 36.7,0 36.7,-36.7 0.0,-36.7 0.0,-0.8 35.9,-0.8 35.9,-35.9 0.8,-35.9 0.8,-1.6 35.1,-1.6 35.1,-35.1 1.6,-35.1 1.6,-2.4 34.3,-2.4 34.3,-34.3 2.4,-34.3 2.4,-3.2 33.5,-3.2 33.5,-33.5 3.2,-33.5 3.2,-4.0 32.7,-4.0 32.7,-32.7 4.0,-32.7 4.0,-4.8 31.9,-4.8 31.9,-31.9 4.8,-31.9 4.8,-5.6 31.1,-5.6 31.1,-6.1 30.6,-6.1 5.3,-6.1 5.3,-31.4 31.4,-31.4 31.4,-5.3 4.5,-5.3 4.5,-32.2 32.2,-32.2 32.2,-4.5 3.7,-4.5 3.7,-33.0 33.0,-33.0 33.0,-3.7 2.9,-3.7 2.9,-33.8 33.8,-33.8 33.8,-2.9 2.1,-2.9 2.1,-34.6 34.6,-34.6 34.6,-2.1 1.3,-2.1 1.3,-35.4 35.4,-35.4 35.4,-1.3 0.5,-1.3 0.5,-36.2 36.2,-36.2 36.2,-0.5 0,-0.5 0,0" stroke="black" stroke-width="1" /></svg>